<?xml version="1.0" standalone="no"?>
<!DOCTYPE svg PUBLIC "-//W3C//DTD SVG 20010904//EN"
 "http://www.w3.org/TR/2001/REC-SVG-20010904/DTD/svg10.dtd">
<svg version="1.0" xmlns="http://www.w3.org/2000/svg"
 width="256.000000pt" height="256.000000pt" viewBox="0 0 256.000000 256.000000"
 preserveAspectRatio="xMidYMid meet">

<g transform="translate(0.000000,256.000000) scale(0.100000,-0.100000)"
fill="#000000" stroke="none">
<path d="M1890 2380 c-50 -24 -114 -81 -136 -122 l-15 -28 -518 0 c-510 0
-519 0 -545 -21 -34 -27 -268 -261 -295 -295 -21 -26 -21 -33 -21 -635 l0
-608 -27 -3 -28 -3 -3 -242 -2 -243 145 0 145 0 0 245 c0 238 -1 245 -20 245
-20 0 -20 7 -20 573 l0 572 113 113 112 112 477 0 476 0 31 -54 c35 -63 79
-99 151 -127 65 -25 116 -24 185 2 113 42 175 125 183 244 4 62 1 81 -20 127
-28 61 -82 118 -136 144 -57 28 -176 30 -232 4z m182 -136 c63 -32 89 -130 51
-194 -19 -34 -80 -70 -117 -70 -125 0 -192 153 -105 239 49 50 106 58 171 25z"/>
<path d="M1391 1473 c-18 -9 -43 -31 -54 -49 l-22 -33 -198 -3 -198 -3 -94
-96 -95 -96 0 -261 0 -261 -42 -3 -43 -3 -3 -242 -2 -243 145 0 145 0 0 245 0
245 -35 0 -35 0 0 235 0 234 59 61 59 60 169 0 c169 0 170 0 181 -24 6 -13 27
-37 48 -52 30 -24 47 -29 93 -29 70 0 117 27 150 85 48 86 17 190 -71 236 -36
19 -115 17 -157 -3z m144 -89 c33 -36 33 -87 0 -119 -38 -39 -88 -37 -127 6
-36 38 -36 73 1 110 39 39 92 40 126 3z"/>
</g>
</svg>
