<?xml version="1.0" encoding="UTF-8"?>
<!DOCTYPE svg PUBLIC "-//W3C//DTD SVG 1.1//EN" "http://www.w3.org/Graphics/SVG/1.1/DTD/svg11.dtd">
<svg xmlns="http://www.w3.org/2000/svg" version="1.1" width="1024px" height="1024px" style="shape-rendering:geometricPrecision; text-rendering:geometricPrecision; image-rendering:optimizeQuality; fill-rule:evenodd; clip-rule:evenodd" xmlns:xlink="http://www.w3.org/1999/xlink">
<g><path style="opacity:1" fill="#f1b9b5" d="M -0.5,-0.5 C 340.833,-0.5 682.167,-0.5 1023.5,-0.5C 1023.5,-0.166667 1023.5,0.166667 1023.5,0.5C 682.5,0.5 341.5,0.5 0.5,0.5C 0.5,303.167 0.5,605.833 0.5,908.5C 0.5,946.833 0.5,985.167 0.5,1023.5C 0.166667,1023.5 -0.166667,1023.5 -0.5,1023.5C -0.5,682.167 -0.5,340.833 -0.5,-0.5 Z"/></g>
<g><path style="opacity:1" fill="#d63123" d="M 1023.5,0.5 C 1023.5,303.167 1023.5,605.833 1023.5,908.5C 682.5,908.5 341.5,908.5 0.5,908.5C 0.5,605.833 0.5,303.167 0.5,0.5C 341.5,0.5 682.5,0.5 1023.5,0.5 Z"/></g>
<g><path style="opacity:1" fill="#fefefe" d="M 548.5,131.5 C 586.835,131.333 625.168,131.5 663.5,132C 696.2,135.695 710.7,153.862 707,186.5C 704.573,206.597 693.406,218.764 673.5,223C 669.181,223.76 664.848,224.427 660.5,225C 628.5,225.333 596.5,225.667 564.5,226C 544.437,225.624 531.604,235.124 526,254.5C 525.251,259.489 524.585,264.489 524,269.5C 523.5,287.164 523.333,304.83 523.5,322.5C 546.836,322.333 570.169,322.5 593.5,323C 626.784,326.743 641.617,345.243 638,378.5C 636.205,395.266 627.372,406.433 611.5,412C 604.377,414.521 597.044,416.188 589.5,417C 567.503,417.5 545.503,417.667 523.5,417.5C 523.333,474.834 523.5,532.168 524,589.5C 567.994,614.821 586.994,652.821 581,703.5C 570.093,750.74 540.926,779.573 493.5,790C 445.645,795.289 408.811,777.789 383,737.5C 358.426,686.001 366.926,640.834 408.5,602C 414.576,597.21 421.076,593.043 428,589.5C 428.5,532.168 428.667,474.834 428.5,417.5C 411.798,417.872 395.132,417.372 378.5,416C 345.75,409.543 332.25,389.71 338,356.5C 343.213,337.958 355.38,327.125 374.5,324C 392.471,322.652 410.471,322.152 428.5,322.5C 427.86,297.099 428.693,271.766 431,246.5C 433.751,221.544 443.084,199.544 459,180.5C 473.038,164.087 489.538,150.92 508.5,141C 521.488,135.846 534.821,132.68 548.5,131.5 Z"/></g>
<g><path style="opacity:1" fill="#4a170d" d="M 467.5,646.5 C 491.488,644.35 506.988,654.684 514,677.5C 514.974,708.192 500.141,723.359 469.5,723C 445.988,716.464 435.488,700.964 438,676.5C 442.692,661.309 452.526,651.309 467.5,646.5 Z"/></g>
<g><path style="opacity:1" fill="#811f10" d="M 0.5,908.5 C 341.5,908.5 682.5,908.5 1023.5,908.5C 1023.5,946.833 1023.5,985.167 1023.5,1023.5C 682.5,1023.5 341.5,1023.5 0.5,1023.5C 0.5,985.167 0.5,946.833 0.5,908.5 Z"/></g>
</svg>
