<?xml version="1.0" encoding="UTF-8" standalone="no"?>
<svg
   xmlns:dc="http://purl.org/dc/elements/1.1/"
   xmlns:cc="http://creativecommons.org/ns#"
   xmlns:rdf="http://www.w3.org/1999/02/22-rdf-syntax-ns#"
   xmlns:svg="http://www.w3.org/2000/svg"
   xmlns="http://www.w3.org/2000/svg"
   viewBox="0 0 693.33331 682.66669"
   height="682.66669"
   width="693.33331"
   xml:space="preserve"
   id="svg2"
   version="1.1"><metadata
     id="metadata8"><rdf:RDF><cc:Work
         rdf:about=""><dc:format>image/svg+xml</dc:format><dc:type
           rdf:resource="http://purl.org/dc/dcmitype/StillImage" /></cc:Work></rdf:RDF></metadata><defs
     id="defs6"><clipPath
       id="clipPath18"
       clipPathUnits="userSpaceOnUse"><path
         id="path16"
         d="M 0,512 H 520 V 0 H 0 Z" /></clipPath><clipPath
       id="clipPath50"
       clipPathUnits="userSpaceOnUse"><path
         id="path48"
         d="M 0,512 H 520 V 0 H 0 Z" /></clipPath><clipPath
       id="clipPath58"
       clipPathUnits="userSpaceOnUse"><path
         id="path56"
         d="M 26.999,449.216 H 491.835 V 91.8096 H 26.999 Z" /></clipPath><clipPath
       id="clipPath82"
       clipPathUnits="userSpaceOnUse"><path
         id="path80"
         d="M 0,512 H 520 V 0 H 0 Z" /></clipPath><clipPath
       id="clipPath114"
       clipPathUnits="userSpaceOnUse"><path
         id="path112"
         d="M 0,512 H 520 V 0 H 0 Z" /></clipPath></defs><g
     transform="matrix(1.3333333,0,0,-1.3333333,0,682.66667)"
     id="g10"><g
       id="g12"><g
         clip-path="url(#clipPath18)"
         id="g14"><g
           transform="translate(391,86.25)"
           id="g20"><path
             id="path22"
             style="fill:#62e3ff;fill-opacity:1;fill-rule:nonzero;stroke:none"
             d="m 0,0 c 0,-24.991 -57.464,-45.25 -129.583,-45.25 -72.119,0 -130.584,20.259 -130.584,45.25 0,24.991 58.465,45.25 130.584,45.25 C -57.464,45.25 0,24.991 0,0" /></g><g
           transform="translate(285.25,41.752)"
           id="g24"><path
             id="path26"
             style="fill:#43afff;fill-opacity:1;fill-rule:nonzero;stroke:none"
             d="m 0,0 v 23.854 c 0,15.334 10.75,20 10.75,25.667 0,9.75 -19.621,-0.925 -25.667,-7 -9.208,-9.25 -8.167,-12.874 -7.944,-28.377 0.057,-4.012 0.074,-9.303 0.068,-14.896 C -15.003,-0.731 -7.388,-0.475 0,0" /></g><g
           transform="translate(225.3706,42.7422)"
           id="g28"><path
             id="path30"
             style="fill:#43afff;fill-opacity:1;fill-rule:nonzero;stroke:none"
             d="m 0,0 c -0.049,13.169 -0.121,30.934 -0.121,37.905 0,13.375 -19,21 -28.125,21 -4.623,0 -10.375,-0.238 -10.375,-2.681 0,-6.194 17.375,-9.819 17.375,-22.694 0,-7.091 -0.101,-21.271 -0.174,-30.668 C -14.593,1.7 -7.434,0.738 0,0" /></g><g
           transform="translate(314.417,76.7734)"
           id="g32"><path
             id="path34"
             style="fill:#43afff;fill-opacity:1;fill-rule:nonzero;stroke:none"
             d="M 0,0 C 0.167,12.167 18,18.001 17.333,21.917 16.667,25.833 2.406,25.194 -4.253,22.873 -23.14,16.29 -21.25,0.583 -21.25,0.583 l -0.508,-35.05 c 7.653,0.655 15.031,1.544 22.067,2.647 C 0.22,-10.468 -0.087,-6.358 0,0" /></g><g
           transform="translate(252.6992,76.8955)"
           id="g36"><path
             id="path38"
             style="fill:#43afff;fill-opacity:1;fill-rule:nonzero;stroke:none"
             d="m 0,0 c -7.574,16.752 -30.449,22.502 -30.449,14.877 0,-5.125 4.625,-3.5 7.75,-15 1.261,-4.641 1.944,-19.893 2.314,-34.648 7.822,-0.617 15.913,-0.989 24.2,-1.094 C 3.625,-21.287 2.72,-6.056 0,0" /></g><g
           transform="translate(112.334,201.916)"
           id="g40"><path
             id="path42"
             style="fill:#62e3ff;fill-opacity:1;fill-rule:nonzero;stroke:none"
             d="M 0,0 C -8.053,0 -0.037,12.646 0,18.333 0.137,12.49 8.053,0 0,0" /></g></g></g><g
       id="g44"><g
         clip-path="url(#clipPath50)"
         id="g46"><g
           id="g52"><g
             id="g54" /><g
             id="g74"><g
               id="g72"
               clip-path="url(#clipPath58)"><g
                 id="g62"
                 transform="translate(310.6699,343.5)"><path
                   id="path60"
                   style="fill:#ffc09f;fill-opacity:1;fill-rule:nonzero;stroke:none"
                   d="m 0,0 c 40.27,0 50.5,-28.5 50.5,-50.5 0,-29.99 -15.09,-51.73 -52.64,-57.35 -4.61,-0.69 -9.56,-1.14 -14.86,-1.33 -22.67,-0.82 -45.33,-0.71 -64,0.01 -2.71,0.1 -5.37,0.27 -7.98,0.5 -39.19,3.43 -67.02,21.15 -67.02,60.84 0,15.03 10.16,47.83 51.16,47.83 4.06,0 30.57,-2.5 56.17,-2.5 C -25.94,-2.5 -2.95,0 0,0" /></g><g
                 id="g66"
                 transform="translate(490.6099,277.98)"><path
                   id="path64"
                   style="fill:#000000;fill-opacity:1;fill-rule:nonzero;stroke:none"
                   d="m 0,0 c 0.81,-0.16 1.35,-0.94 1.2,-1.75 -0.13,-0.72 -0.77,-1.23 -1.47,-1.23 -0.09,0 -0.19,0.01 -0.28,0.02 -20.45,3.78 -50.21,7.94 -101.03,7.47 -0.89,-2.95 -1.89,-5.76 -2.98,-8.44 17.3,-0.58 64.81,-2.43 103.55,-14.28 0.8,-0.24 1.24,-1.08 1,-1.88 -0.2,-0.64 -0.79,-1.06 -1.43,-1.06 -0.15,0 -0.3,0.02 -0.44,0.07 -39.28,12.01 -87.82,13.66 -103.96,14.19 -12.52,-27.49 -36.75,-39.63 -74.82,-45.34 l -1.42,9.9 c 37.55,5.62 52.64,27.36 52.64,57.35 0,22 -10.23,50.5 -50.5,50.5 -2.95,0 -25.94,-2.5 -48.67,-2.5 -25.6,0 -52.11,2.5 -56.17,2.5 -41,0 -51.16,-32.8 -51.16,-47.83 0,-39.69 27.83,-57.41 67.02,-60.84 l -1.09,-10.95 c -46.59,4.72 -74.29,21.11 -88.72,47.31 -49.54,-1.19 -77.66,-8.22 -98.27,-13.37 -1.5,-0.38 -2.96,-0.74 -4.38,-1.1 -0.12,-0.03 -0.24,-0.04 -0.36,-0.04 -0.68,0 -1.29,0.46 -1.46,1.14 -0.2,0.8 0.3,1.62 1.1,1.82 1.42,0.35 2.88,0.71 4.37,1.09 20.55,5.13 48.49,12.12 97.44,13.42 -1.35,2.71 -2.57,5.51 -3.66,8.4 -19.04,0.16 -77.71,-2.54 -97.8,-7.51 -0.12,-0.03 -0.24,-0.04 -0.36,-0.04 -0.67,0 -1.29,0.46 -1.46,1.14 -0.19,0.8 0.3,1.62 1.1,1.82 19.91,4.92 77.16,7.65 97.44,7.6 -4.56,13.42 -6.58,28.79 -6.58,45.96 0,30.48 9.5,41.98 22.25,58.23 -9.75,34.75 3.5,58.5 3.5,58.5 0,0 20.5,4.25 59.25,-23.5 21,9 77,9.75 103.5,2 16.25,10.75 46,26 58,21.73 3.25,-5.23 10.25,-20.48 4.25,-53.98 4.07,-7.35 25.25,-23 25.33,-67.25 -0.34,-16.32 -2.04,-30.1 -5.19,-41.75 C -50.19,7.94 -20.47,3.77 0,0" /></g><g
                 id="g70"
                 transform="translate(314.4199,126.25)"><path
                   id="path68"
                   style="fill:#000000;fill-opacity:1;fill-rule:nonzero;stroke:none"
                   d="m 0,0 c 0.16,-12.17 18,-18 17.33,-21.92 -0.67,-3.91 -14.93,-3.28 -21.59,-0.95 -18.88,6.58 -16.99,22.29 -16.99,22.29 l -0.63,43.12 c 0,0 1.29,23.21 -7.29,23.21 V -4.83 c 0,-15.34 10.75,-20 10.75,-25.67 0,-9.75 -19.62,0.92 -25.67,7 -9.21,9.25 -8.16,28.87 -7.94,44.38 0.21,14.98 -0.14,47.75 -0.14,47.75 l -6.25,-0.13 c 0,0 2.56,-71.58 -3.3,-84.62 -7.58,-16.75 -30.45,-22.51 -30.45,-14.88 0,5.13 5.63,3.5 8.75,15 2.66,9.78 1.75,82.75 1.75,82.75 0,0 -7.33,-4.33 -7.33,-18 0,-6.25 -0.17,-41.99 -0.17,-52.62 0,-13.38 -19,-21 -28.13,-21 -4.62,0 -10.37,0.23 -10.37,2.68 0,6.19 17.37,9.82 17.37,22.69 0,11.16 -0.24,39.87 -0.24,39.87 0,0 -8.76,-1.5 -21.26,-1.5 -31.5,0 -41.46,20.1 -46.2,31.35 -6.17,14.65 -14.17,21.53 -22.67,27.03 -5.22,3.38 -6.42,7.36 -0.38,8.5 27.88,5.25 35.01,-31.62 53.63,-37.5 13.29,-4.19 30.38,-2.38 38.88,3.12 1.12,11.26 9.24,21 16,26.13 -0.43,0.04 -0.86,0.08 -1.28,0.13 l 1.09,10.95 c 2.61,-0.23 5.27,-0.4 7.98,-0.5 18.67,-0.72 41.33,-0.83 64,-0.01 5.3,0.19 10.25,0.64 14.86,1.33 l 1.42,-9.9 C -9.13,98.8 -14.01,98.19 -19.09,97.67 -4,88.17 0.33,76.25 0.33,44 0.33,11.75 -0.1,7.42 0,0" /></g></g></g></g></g></g><g
       id="g76"><g
         clip-path="url(#clipPath82)"
         id="g78"><g
           transform="translate(223.6665,293.25)"
           id="g84"><path
             id="path86"
             style="fill:#ffffff;fill-opacity:1;fill-rule:nonzero;stroke:none"
             d="m 0,0 c 0,17.627 -9.588,31.917 -21.417,31.917 -11.828,0 -21.416,-14.29 -21.416,-31.917 0,-17.627 9.588,-29.917 21.416,-29.917 C -9.588,-29.917 0,-17.627 0,0" /></g><g
           transform="translate(339.4165,293.25)"
           id="g88"><path
             id="path90"
             style="fill:#ffffff;fill-opacity:1;fill-rule:nonzero;stroke:none"
             d="m 0,0 c 0,17.627 -9.588,31.917 -21.417,31.917 -11.828,0 -21.416,-14.29 -21.416,-31.917 0,-17.627 9.588,-29.917 21.416,-29.917 C -9.588,-29.917 0,-17.627 0,0" /></g><g
           transform="translate(258.5835,244.166)"
           id="g92"><path
             id="path94"
             style="fill:#b1423a;fill-opacity:1;fill-rule:nonzero;stroke:none"
             d="m 0,0 c -7.655,0 -13.25,6.577 -13.25,10 0,0.828 0.671,1.5 1.5,1.5 0.829,0 1.5,-0.672 1.5,-1.5 0,-1.692 4.253,-7 10.25,-7 5.199,0 9.083,3.695 9.083,7 0,0.828 0.671,1.5 1.5,1.5 0.829,0 1.5,-0.672 1.5,-1.5 C 12.083,5.271 7.121,0 0,0" /></g><g
           transform="translate(263.5835,266.583)"
           id="g96"><path
             id="path98"
             style="fill:#b1423a;fill-opacity:1;fill-rule:nonzero;stroke:none"
             d="m 0,0 c 0,-2.854 -2.313,-5.167 -5.167,-5.167 -2.854,0 -5.167,2.313 -5.167,5.167 0,2.854 2.313,5.167 5.167,5.167 C -2.313,5.167 0,2.854 0,0" /></g><g
           transform="translate(216.3335,293.25)"
           id="g100"><path
             id="path102"
             style="fill:#b1423a;fill-opacity:1;fill-rule:nonzero;stroke:none"
             d="m 0,0 c 0,11.414 -6.305,20.667 -14.083,20.667 -7.779,0 -14.084,-9.253 -14.084,-20.667 0,-11.414 6.305,-20.667 14.084,-20.667 C -6.305,-20.667 0,-11.414 0,0" /></g><g
           transform="translate(332.0835,293.25)"
           id="g104"><path
             id="path106"
             style="fill:#b1423a;fill-opacity:1;fill-rule:nonzero;stroke:none"
             d="m 0,0 c 0,11.414 -6.305,20.667 -14.083,20.667 -7.779,0 -14.084,-9.253 -14.084,-20.667 0,-11.414 6.305,-20.667 14.084,-20.667 C -6.305,-20.667 0,-11.414 0,0" /></g></g></g><g
       id="g108"><g
         clip-path="url(#clipPath114)"
         id="g110"><g
           transform="translate(125.875,228.208)"
           id="g116"><path
             id="path118"
             style="fill:#b0f5df;fill-opacity:1;fill-rule:nonzero;stroke:none"
             d="m 0,0 c 0,-1.242 -1.511,-2.25 -3.375,-2.25 -1.864,0 -3.375,1.008 -3.375,2.25 0,1.242 1.511,2.25 3.375,2.25 C -1.511,2.25 0,1.242 0,0" /></g><g
           transform="translate(136.375,222.499)"
           id="g120"><path
             id="path122"
             style="fill:#b0f5df;fill-opacity:1;fill-rule:nonzero;stroke:none"
             d="m 0,0 c 0,-1.242 -1.511,-2.25 -3.375,-2.25 -1.864,0 -3.375,1.008 -3.375,2.25 0,1.242 1.511,2.25 3.375,2.25 C -1.511,2.25 0,1.242 0,0" /></g><g
           transform="translate(142.7915,214.874)"
           id="g124"><path
             id="path126"
             style="fill:#b0f5df;fill-opacity:1;fill-rule:nonzero;stroke:none"
             d="m 0,0 c 0,-1.242 -1.511,-2.25 -3.375,-2.25 -1.864,0 -3.375,1.008 -3.375,2.25 0,1.242 1.511,2.25 3.375,2.25 C -1.511,2.25 0,1.242 0,0" /></g><g
           transform="translate(148.4165,206.249)"
           id="g128"><path
             id="path130"
             style="fill:#b0f5df;fill-opacity:1;fill-rule:nonzero;stroke:none"
             d="m 0,0 c 0,-1.242 -1.511,-2.25 -3.375,-2.25 -1.864,0 -3.375,1.008 -3.375,2.25 0,1.242 1.511,2.25 3.375,2.25 C -1.511,2.25 0,1.242 0,0" /></g><g
           transform="translate(154.833,198.124)"
           id="g132"><path
             id="path134"
             style="fill:#b0f5df;fill-opacity:1;fill-rule:nonzero;stroke:none"
             d="m 0,0 c 0,-1.242 -1.511,-2.25 -3.375,-2.25 -1.864,0 -3.375,1.008 -3.375,2.25 0,1.242 1.511,2.25 3.375,2.25 C -1.511,2.25 0,1.242 0,0" /></g><g
           transform="translate(163.5,191.207)"
           id="g136"><path
             id="path138"
             style="fill:#b0f5df;fill-opacity:1;fill-rule:nonzero;stroke:none"
             d="m 0,0 c 0,-1.242 -1.511,-2.25 -3.375,-2.25 -1.864,0 -3.375,1.008 -3.375,2.25 0,1.242 1.511,2.25 3.375,2.25 C -1.511,2.25 0,1.242 0,0" /></g><g
           transform="translate(175.625,186.707)"
           id="g140"><path
             id="path142"
             style="fill:#b0f5df;fill-opacity:1;fill-rule:nonzero;stroke:none"
             d="m 0,0 c 0,-1.242 -1.511,-2.25 -3.375,-2.25 -1.864,0 -3.375,1.008 -3.375,2.25 0,1.242 1.511,2.25 3.375,2.25 C -1.511,2.25 0,1.242 0,0" /></g><g
           transform="translate(187.7915,186.707)"
           id="g144"><path
             id="path146"
             style="fill:#b0f5df;fill-opacity:1;fill-rule:nonzero;stroke:none"
             d="m 0,0 c 0,-1.242 -1.511,-2.25 -3.375,-2.25 -1.864,0 -3.375,1.008 -3.375,2.25 0,1.242 1.511,2.25 3.375,2.25 C -1.511,2.25 0,1.242 0,0" /></g><g
           transform="translate(200,188.624)"
           id="g148"><path
             id="path150"
             style="fill:#b0f5df;fill-opacity:1;fill-rule:nonzero;stroke:none"
             d="m 0,0 c 0,-1.242 -1.511,-2.25 -3.375,-2.25 -1.864,0 -3.375,1.008 -3.375,2.25 0,1.242 1.511,2.25 3.375,2.25 C -1.511,2.25 0,1.242 0,0" /></g></g></g></g></svg>