<?xml version="1.0" encoding="UTF-8"?>
<!DOCTYPE svg PUBLIC "-//W3C//DTD SVG 1.1//EN" "http://www.w3.org/Graphics/SVG/1.1/DTD/svg11.dtd">
<svg xmlns="http://www.w3.org/2000/svg" version="1.1" width="400px" height="216px" style="shape-rendering:geometricPrecision; text-rendering:geometricPrecision; image-rendering:optimizeQuality; fill-rule:evenodd; clip-rule:evenodd" xmlns:xlink="http://www.w3.org/1999/xlink">
<g><path style="opacity:1" fill="#fdeff4" d="M 399.5,6.5 C 399.5,9.16667 399.5,11.8333 399.5,14.5C 395.846,14.9422 392.179,15.2756 388.5,15.5C 388.33,16.8221 388.663,17.9887 389.5,19C 385.532,19.9418 381.532,20.7751 377.5,21.5C 374.596,24.0813 371.263,25.748 367.5,26.5C 375.26,19.7877 384.26,15.4544 394.5,13.5C 396.103,13.6882 397.437,13.1882 398.5,12C 328.332,11.1679 258.332,11.3345 188.5,12.5C 188.443,13.609 188.11,14.609 187.5,15.5C 186.662,15.8417 186.328,16.5084 186.5,17.5C 185.833,18.1667 185.167,18.8333 184.5,19.5C 182.665,15.7876 183.665,12.9543 187.5,11C 256.836,10.8333 326.169,10.3333 395.5,9.5C 394.624,8.74917 393.624,8.24917 392.5,8C 394.813,7.33802 397.146,6.83802 399.5,6.5 Z"/></g>
<g><path style="opacity:1" fill="#dda2b2" d="M 188.5,12.5 C 258.332,11.3345 328.332,11.1679 398.5,12C 397.437,13.1882 396.103,13.6882 394.5,13.5C 326.002,12.5008 257.335,12.1675 188.5,12.5 Z"/></g>
<g><path style="opacity:1" fill="#76132e" d="M 188.5,12.5 C 257.335,12.1675 326.002,12.5008 394.5,13.5C 384.26,15.4544 375.26,19.7877 367.5,26.5C 364.907,27.7536 362.573,29.4202 360.5,31.5C 360.69,25.1449 364.024,21.9783 370.5,22C 372.869,20.5037 374.202,18.6704 374.5,16.5C 375.167,16.8333 375.833,17.1667 376.5,17.5C 378.637,16.1319 380.97,15.1319 383.5,14.5C 351.167,14.1667 318.833,13.8333 286.5,13.5C 253.355,13.5139 220.355,14.1806 187.5,15.5C 188.11,14.609 188.443,13.609 188.5,12.5 Z"/></g>
<g><path style="opacity:1" fill="#fefdfe" d="M -0.5,-0.5 C 132.833,-0.5 266.167,-0.5 399.5,-0.5C 399.5,1.83333 399.5,4.16667 399.5,6.5C 397.146,6.83802 394.813,7.33802 392.5,8C 393.624,8.24917 394.624,8.74917 395.5,9.5C 326.169,10.3333 256.836,10.8333 187.5,11C 183.665,12.9543 182.665,15.7876 184.5,19.5C 181.625,25.4162 178.625,31.2496 175.5,37C 190.167,37.3333 204.833,37.6667 219.5,38C 229.466,39.4883 238.799,42.655 247.5,47.5C 247.833,47.5 248.167,47.5 248.5,47.5C 253.103,51.2633 257.603,55.2633 262,59.5C 264.193,63.2299 266.36,66.8965 268.5,70.5C 272.419,85.4667 272.419,100.467 268.5,115.5C 260.746,138.673 251.08,161.006 239.5,182.5C 236.739,186.35 233.739,190.017 230.5,193.5C 227.427,193.453 225.094,194.619 223.5,197C 223.645,197.772 223.978,198.439 224.5,199C 230.58,199.626 236.58,199.126 242.5,197.5C 244.693,197.229 246.359,196.229 247.5,194.5C 263.24,186.761 276.24,175.761 286.5,161.5C 291.167,156.176 294.834,150.176 297.5,143.5C 301.021,138.458 304.021,133.125 306.5,127.5C 309.734,122.004 312.234,116.004 314,109.5C 314.893,110.711 315.726,110.711 316.5,109.5C 315.583,106.242 315.249,102.909 315.5,99.5C 317.971,92.7536 320.638,86.087 323.5,79.5C 326.737,74.7015 329.737,69.7015 332.5,64.5C 338.858,54.4796 346.191,45.1463 354.5,36.5C 356.5,34.8333 358.5,33.1667 360.5,31.5C 362.573,29.4202 364.907,27.7536 367.5,26.5C 371.263,25.748 374.596,24.0813 377.5,21.5C 381.532,20.7751 385.532,19.9418 389.5,19C 388.663,17.9887 388.33,16.8221 388.5,15.5C 392.179,15.2756 395.846,14.9422 399.5,14.5C 399.5,81.5 399.5,148.5 399.5,215.5C 266.167,215.5 132.833,215.5 -0.5,215.5C -0.5,143.5 -0.5,71.5 -0.5,-0.5 Z"/></g>
<g><path style="opacity:1" fill="#910129" d="M 360.5,31.5 C 358.5,33.1667 356.5,34.8333 354.5,36.5C 352.278,36.178 350.444,36.8446 349,38.5C 347.01,41.4883 344.677,44.1549 342,46.5C 341.522,49.2049 340.689,51.2049 339.5,52.5C 338.5,52.5 337.5,52.5 336.5,52.5C 335.118,56.5243 333.785,60.5243 332.5,64.5C 329.737,69.7015 326.737,74.7015 323.5,79.5C 321.56,81.4711 319.893,83.8044 318.5,86.5C 317.526,84.2573 317.192,81.924 317.5,79.5C 316.167,79.5 314.833,79.5 313.5,79.5C 313.643,81.2624 313.309,82.9291 312.5,84.5C 315.086,87.6145 316.086,91.2811 315.5,95.5C 314.5,95.5 313.5,95.5 312.5,95.5C 311.953,108.568 310.62,108.568 308.5,95.5C 307.5,95.5 306.5,95.5 305.5,95.5C 305.363,99.1791 306.029,102.679 307.5,106C 306.137,108.129 306.471,108.629 308.5,107.5C 310.112,112.608 309.278,117.275 306,121.5C 305.333,120.833 304.667,120.167 304,119.5C 303.825,123.211 303.325,126.878 302.5,130.5C 300.866,130.968 299.7,131.968 299,133.5C 297.957,136.757 297.457,140.09 297.5,143.5C 294.834,150.176 291.167,156.176 286.5,161.5C 285.417,161.539 284.417,161.873 283.5,162.5C 279.426,167.194 275.426,171.86 271.5,176.5C 269.862,177.958 268.195,178.292 266.5,177.5C 265.41,178.391 265.41,179.391 266.5,180.5C 265.349,181.731 264.183,181.731 263,180.5C 263.148,181.825 262.982,182.992 262.5,184C 260.191,184.756 258.191,184.256 256.5,182.5C 255.614,183.325 255.281,184.325 255.5,185.5C 253.857,185.52 252.524,184.853 251.5,183.5C 249.566,183.901 248.066,184.901 247,186.5C 247.035,181.903 247.035,177.236 247,172.5C 250.857,163.453 255.19,154.786 260,146.5C 260.518,149.023 261.852,151.023 264,152.5C 264.498,149.518 264.665,146.518 264.5,143.5C 263.5,143.5 262.5,143.5 261.5,143.5C 261.144,140.436 261.977,137.769 264,135.5C 264.333,137.167 264.667,138.833 265,140.5C 265.629,136.948 266.462,133.448 267.5,130C 267.294,128.634 266.96,127.301 266.5,126C 267.489,122.553 268.156,119.053 268.5,115.5C 272.419,100.467 272.419,85.4667 268.5,70.5C 268.162,68.146 267.662,65.8127 267,63.5C 264.018,60.2173 261.518,56.5507 259.5,52.5C 256.53,52.0051 254.196,50.5051 252.5,48C 251.207,47.51 249.873,47.3433 248.5,47.5C 248.167,47.5 247.833,47.5 247.5,47.5C 246.972,46.2794 246.305,45.1127 245.5,44C 242.129,42.9319 238.796,41.7653 235.5,40.5C 234.614,39.675 234.281,38.675 234.5,37.5C 215.846,36.6633 197.18,36.3299 178.5,36.5C 178.343,35.1266 178.51,33.7932 179,32.5C 182.595,27.9768 185.095,22.9768 186.5,17.5C 186.328,16.5084 186.662,15.8417 187.5,15.5C 220.355,14.1806 253.355,13.5139 286.5,13.5C 318.833,13.8333 351.167,14.1667 383.5,14.5C 380.97,15.1319 378.637,16.1319 376.5,17.5C 375.833,17.1667 375.167,16.8333 374.5,16.5C 374.202,18.6704 372.869,20.5037 370.5,22C 364.024,21.9783 360.69,25.1449 360.5,31.5 Z"/></g>
<g><path style="opacity:1" fill="#8d0e2d" d="M 149.5,48.5 C 149.167,48.5 148.833,48.5 148.5,48.5C 148.264,45.7743 149.097,43.441 151,41.5C 151.741,38.438 151.575,35.438 150.5,32.5C 151.376,31.7492 152.376,31.2492 153.5,31C 150.242,29.2018 146.909,27.7018 143.5,26.5C 143.5,27.5 143.5,28.5 143.5,29.5C 147.257,29.2864 147.924,30.2864 145.5,32.5C 146.083,34.0016 146.916,35.3349 148,36.5C 148.781,37.9437 148.614,39.277 147.5,40.5C 145.23,39.3058 143.063,39.3058 141,40.5C 140.505,37.4686 140.671,34.4686 141.5,31.5C 140.127,31.6567 138.793,31.49 137.5,31C 138.167,30.6667 138.833,30.3333 139.5,30C 138.333,29.5 137.5,28.6667 137,27.5C 134.262,29.0576 131.429,30.391 128.5,31.5C 140.717,19.5919 155.384,13.4252 172.5,13C 162.216,23.121 154.55,34.9544 149.5,48.5 Z"/></g>
<g><path style="opacity:1" fill="#fadce6" d="M 127.5,31.5 C 127.5,31.8333 127.5,32.1667 127.5,32.5C 122.806,36.5271 118.473,40.8604 114.5,45.5C 115.548,41.7383 117.381,38.405 120,35.5C 121.011,34.6634 122.178,34.33 123.5,34.5C 123.5,33.5 123.5,32.5 123.5,31.5C 124.833,31.5 126.167,31.5 127.5,31.5 Z"/></g>
<g><path style="opacity:1" fill="#7a1d34" d="M 186.5,17.5 C 185.095,22.9768 182.595,27.9768 179,32.5C 178.51,33.7932 178.343,35.1266 178.5,36.5C 197.18,36.3299 215.846,36.6633 234.5,37.5C 234.281,38.675 234.614,39.675 235.5,40.5C 238.796,41.7653 242.129,42.9319 245.5,44C 246.305,45.1127 246.972,46.2794 247.5,47.5C 238.799,42.655 229.466,39.4883 219.5,38C 204.833,37.6667 190.167,37.3333 175.5,37C 178.625,31.2496 181.625,25.4162 184.5,19.5C 185.167,18.8333 185.833,18.1667 186.5,17.5 Z"/></g>
<g><path style="opacity:1" fill="#900129" d="M 148.5,48.5 C 143.637,60.4213 138.971,72.4213 134.5,84.5C 134.5,84.8333 134.5,85.1667 134.5,85.5C 132.645,88.5544 131.312,91.8878 130.5,95.5C 128.744,96.5521 128.077,98.2188 128.5,100.5C 125.636,100.064 123.303,100.897 121.5,103C 122.683,105.155 122.35,107.155 120.5,109C 121.5,110.667 122.5,112.333 123.5,114C 122.319,117.608 122.319,121.275 123.5,125C 123.333,125.833 123.167,126.667 123,127.5C 121.701,127.034 120.201,127.034 118.5,127.5C 117.872,134.04 120.872,137.207 127.5,137C 128.857,140.215 130.357,143.382 132,146.5C 132.671,147.252 133.504,147.586 134.5,147.5C 137.471,150.808 140.471,154.141 143.5,157.5C 143.539,158.583 143.873,159.583 144.5,160.5C 152.178,165.333 160.178,169.5 168.5,173C 184.799,174.222 201.132,174.888 217.5,175C 219.107,176.049 219.773,177.549 219.5,179.5C 217.358,185.117 214.692,190.45 211.5,195.5C 209.897,195.312 208.563,195.812 207.5,197C 143.167,197.667 78.8333,197.667 14.5,197C 15.2524,196.329 15.5858,195.496 15.5,194.5C 15.5,194.167 15.5,193.833 15.5,193.5C 21.1754,191.328 26.5087,188.495 31.5,185C 36.7311,180.26 42.0644,175.76 47.5,171.5C 48.8221,171.33 49.9887,171.663 51,172.5C 52.222,169.107 54.3886,166.44 57.5,164.5C 57.5914,160.203 59.4247,156.87 63,154.5C 63.4828,153.552 63.6495,152.552 63.5,151.5C 63.5,151.167 63.5,150.833 63.5,150.5C 66.0193,150.152 67.8526,148.819 69,146.5C 72.0169,140.129 75.1835,133.795 78.5,127.5C 79.4519,125.955 79.7852,124.288 79.5,122.5C 79.5,122.167 79.5,121.833 79.5,121.5C 81.5118,119.867 83.1785,117.867 84.5,115.5C 85.3214,112.553 85.8214,109.553 86,106.5C 86.3603,104.579 87.1936,102.912 88.5,101.5C 89.853,104.545 89.5197,107.379 87.5,110C 87.8777,111.635 88.5444,113.135 89.5,114.5C 91.8501,108.71 91.8501,102.877 89.5,97C 90.3212,93.0047 91.9879,89.5047 94.5,86.5C 95.4742,84.2573 95.8076,81.924 95.5,79.5C 97.288,79.7852 98.9547,79.4519 100.5,78.5C 100.587,71.1031 102.921,64.2698 107.5,58C 107.833,57.8333 108.167,57.6667 108.5,57.5C 109.243,58.9079 110.077,60.2412 111,61.5C 122.972,61.5534 127.138,55.8867 123.5,44.5C 122.914,44.7093 122.414,45.0426 122,45.5C 121.82,48.9555 121.153,52.2889 120,55.5C 119.667,55.1667 119.333,54.8333 119,54.5C 118.196,55.8045 117.029,56.4712 115.5,56.5C 114.052,54.6382 112.385,53.9716 110.5,54.5C 112.021,52.7091 113.854,51.3758 116,50.5C 117.392,44.4966 120.892,39.4966 126.5,35.5C 127.386,34.675 127.719,33.675 127.5,32.5C 127.5,32.1667 127.5,31.8333 127.5,31.5C 127.833,31.5 128.167,31.5 128.5,31.5C 131.429,30.391 134.262,29.0576 137,27.5C 137.5,28.6667 138.333,29.5 139.5,30C 138.833,30.3333 138.167,30.6667 137.5,31C 138.793,31.49 140.127,31.6567 141.5,31.5C 140.671,34.4686 140.505,37.4686 141,40.5C 143.063,39.3058 145.23,39.3058 147.5,40.5C 148.614,39.277 148.781,37.9437 148,36.5C 146.916,35.3349 146.083,34.0016 145.5,32.5C 147.924,30.2864 147.257,29.2864 143.5,29.5C 143.5,28.5 143.5,27.5 143.5,26.5C 146.909,27.7018 150.242,29.2018 153.5,31C 152.376,31.2492 151.376,31.7492 150.5,32.5C 151.575,35.438 151.741,38.438 151,41.5C 149.097,43.441 148.264,45.7743 148.5,48.5 Z"/></g>
<g><path style="opacity:1" fill="#841d36" d="M 354.5,36.5 C 346.191,45.1463 338.858,54.4796 332.5,64.5C 333.785,60.5243 335.118,56.5243 336.5,52.5C 337.5,52.5 338.5,52.5 339.5,52.5C 340.689,51.2049 341.522,49.2049 342,46.5C 344.677,44.1549 347.01,41.4883 349,38.5C 350.444,36.8446 352.278,36.178 354.5,36.5 Z"/></g>
<g><path style="opacity:1" fill="#821933" d="M 248.5,47.5 C 249.873,47.3433 251.207,47.51 252.5,48C 254.196,50.5051 256.53,52.0051 259.5,52.5C 261.518,56.5507 264.018,60.2173 267,63.5C 267.662,65.8127 268.162,68.146 268.5,70.5C 266.36,66.8965 264.193,63.2299 262,59.5C 257.603,55.2633 253.103,51.2633 248.5,47.5 Z"/></g>
<g><path style="opacity:1" fill="#f8e1e9" d="M 148.5,48.5 C 148.833,48.5 149.167,48.5 149.5,48.5C 148.605,52.4495 147.605,56.4495 146.5,60.5C 144.132,64.4159 142.132,68.5826 140.5,73C 140.735,73.8732 141.069,74.7065 141.5,75.5C 138.755,78.2957 136.422,81.2957 134.5,84.5C 138.971,72.4213 143.637,60.4213 148.5,48.5 Z"/></g>
<g><path style="opacity:1" fill="#f7dbe2" d="M 134.5,85.5 C 133.7,92.6403 131.7,99.3069 128.5,105.5C 128.851,102.097 129.518,98.7635 130.5,95.5C 131.312,91.8878 132.645,88.5544 134.5,85.5 Z"/></g>
<g><path style="opacity:1" fill="#860f2d" d="M 323.5,79.5 C 320.638,86.087 317.971,92.7536 315.5,99.5C 312.516,108.745 309.516,118.079 306.5,127.5C 304.021,133.125 301.021,138.458 297.5,143.5C 297.457,140.09 297.957,136.757 299,133.5C 299.7,131.968 300.866,130.968 302.5,130.5C 303.325,126.878 303.825,123.211 304,119.5C 304.667,120.167 305.333,120.833 306,121.5C 309.278,117.275 310.112,112.608 308.5,107.5C 306.471,108.629 306.137,108.129 307.5,106C 306.029,102.679 305.363,99.1791 305.5,95.5C 306.5,95.5 307.5,95.5 308.5,95.5C 310.62,108.568 311.953,108.568 312.5,95.5C 313.5,95.5 314.5,95.5 315.5,95.5C 316.086,91.2811 315.086,87.6145 312.5,84.5C 313.309,82.9291 313.643,81.2624 313.5,79.5C 314.833,79.5 316.167,79.5 317.5,79.5C 317.192,81.924 317.526,84.2573 318.5,86.5C 319.893,83.8044 321.56,81.4711 323.5,79.5 Z"/></g>
<g><path style="opacity:1" fill="#881330" d="M 127.5,32.5 C 127.719,33.675 127.386,34.675 126.5,35.5C 120.892,39.4966 117.392,44.4966 116,50.5C 113.854,51.3758 112.021,52.7091 110.5,54.5C 112.385,53.9716 114.052,54.6382 115.5,56.5C 117.029,56.4712 118.196,55.8045 119,54.5C 119.333,54.8333 119.667,55.1667 120,55.5C 121.153,52.2889 121.82,48.9555 122,45.5C 122.414,45.0426 122.914,44.7093 123.5,44.5C 127.138,55.8867 122.972,61.5534 111,61.5C 110.077,60.2412 109.243,58.9079 108.5,57.5C 108.167,57.6667 107.833,57.8333 107.5,58C 102.921,64.2698 100.587,71.1031 100.5,78.5C 98.9547,79.4519 97.288,79.7852 95.5,79.5C 95.8076,81.924 95.4742,84.2573 94.5,86.5C 91.9879,89.5047 90.3212,93.0047 89.5,97C 91.8501,102.877 91.8501,108.71 89.5,114.5C 88.5444,113.135 87.8777,111.635 87.5,110C 89.5197,107.379 89.853,104.545 88.5,101.5C 87.1936,102.912 86.3603,104.579 86,106.5C 85.8214,109.553 85.3214,112.553 84.5,115.5C 83.1785,117.867 81.5118,119.867 79.5,121.5C 85.168,104.664 91.3346,87.9976 98,71.5C 102.761,62.2978 108.261,53.6311 114.5,45.5C 118.473,40.8604 122.806,36.5271 127.5,32.5 Z"/></g>
<g><path style="opacity:1" fill="#f7d7e2" d="M 315.5,99.5 C 315.249,102.909 315.583,106.242 316.5,109.5C 315.726,110.711 314.893,110.711 314,109.5C 312.234,116.004 309.734,122.004 306.5,127.5C 309.516,118.079 312.516,108.745 315.5,99.5 Z"/></g>
<g><path style="opacity:1" fill="#8e1430" d="M 130.5,95.5 C 129.518,98.7635 128.851,102.097 128.5,105.5C 127.157,115.371 127.324,125.371 129,135.5C 130.588,139.672 132.421,143.672 134.5,147.5C 133.504,147.586 132.671,147.252 132,146.5C 130.357,143.382 128.857,140.215 127.5,137C 120.872,137.207 117.872,134.04 118.5,127.5C 120.201,127.034 121.701,127.034 123,127.5C 123.167,126.667 123.333,125.833 123.5,125C 122.319,121.275 122.319,117.608 123.5,114C 122.5,112.333 121.5,110.667 120.5,109C 122.35,107.155 122.683,105.155 121.5,103C 123.303,100.897 125.636,100.064 128.5,100.5C 128.077,98.2188 128.744,96.5521 130.5,95.5 Z"/></g>
<g><path style="opacity:1" fill="#7b1d34" d="M 79.5,122.5 C 79.7852,124.288 79.4519,125.955 78.5,127.5C 75.1835,133.795 72.0169,140.129 69,146.5C 67.8526,148.819 66.0193,150.152 63.5,150.5C 67.4192,144.33 71.0859,137.997 74.5,131.5C 75.9287,128.304 77.5954,125.304 79.5,122.5 Z"/></g>
<g><path style="opacity:1" fill="#f9e8ed" d="M 74.5,131.5 C 71.0859,137.997 67.4192,144.33 63.5,150.5C 63.5,150.833 63.5,151.167 63.5,151.5C 59.5,156.167 55.5,160.833 51.5,165.5C 51.5,163.833 51.5,162.167 51.5,160.5C 54.4701,160.254 55.8034,158.588 55.5,155.5C 56.675,155.719 57.675,155.386 58.5,154.5C 59.3482,152.591 59.6816,150.591 59.5,148.5C 60.8333,148.5 62.1667,148.5 63.5,148.5C 64.4569,146.19 65.4569,143.856 66.5,141.5C 66.167,138.99 65.167,136.823 63.5,135C 65.7008,134.175 67.5341,134.675 69,136.5C 70.4264,134.234 72.2598,132.568 74.5,131.5 Z"/></g>
<g><path style="opacity:1" fill="#851932" d="M 63.5,151.5 C 63.6495,152.552 63.4828,153.552 63,154.5C 59.4247,156.87 57.5914,160.203 57.5,164.5C 54.3886,166.44 52.222,169.107 51,172.5C 49.9887,171.663 48.8221,171.33 47.5,171.5C 48.4151,169.246 49.7484,167.246 51.5,165.5C 55.5,160.833 59.5,156.167 63.5,151.5 Z"/></g>
<g><path style="opacity:1" fill="#fadfe8" d="M 149.5,161.5 C 158.468,164.234 167.135,167.567 175.5,171.5C 165.902,170.359 157.235,167.026 149.5,161.5 Z"/></g>
<g><path style="opacity:1" fill="#fae8ef" d="M 51.5,165.5 C 49.7484,167.246 48.4151,169.246 47.5,171.5C 42.0644,175.76 36.7311,180.26 31.5,185C 26.5087,188.495 21.1754,191.328 15.5,193.5C 15.8212,191.952 16.8212,191.285 18.5,191.5C 18.5,190.167 18.5,188.833 18.5,187.5C 21.4822,187.896 24.1489,187.229 26.5,185.5C 26.2907,184.914 25.9574,184.414 25.5,184C 27.5767,183.808 29.5767,183.308 31.5,182.5C 37.1625,176.337 42.9958,170.337 49,164.5C 49.6708,165.252 50.5041,165.586 51.5,165.5 Z"/></g>
<g><path style="opacity:1" fill="#87253c" d="M 143.5,157.5 C 145.228,159.226 147.228,160.559 149.5,161.5C 157.235,167.026 165.902,170.359 175.5,171.5C 191.338,172.167 207.338,172.833 223.5,173.5C 222.639,175.911 221.306,177.911 219.5,179.5C 219.773,177.549 219.107,176.049 217.5,175C 201.132,174.888 184.799,174.222 168.5,173C 160.178,169.5 152.178,165.333 144.5,160.5C 143.873,159.583 143.539,158.583 143.5,157.5 Z"/></g>
<g><path style="opacity:1" fill="#8b102e" d="M 268.5,115.5 C 268.156,119.053 267.489,122.553 266.5,126C 266.96,127.301 267.294,128.634 267.5,130C 266.462,133.448 265.629,136.948 265,140.5C 264.667,138.833 264.333,137.167 264,135.5C 261.977,137.769 261.144,140.436 261.5,143.5C 262.5,143.5 263.5,143.5 264.5,143.5C 264.665,146.518 264.498,149.518 264,152.5C 261.852,151.023 260.518,149.023 260,146.5C 255.19,154.786 250.857,163.453 247,172.5C 247.035,177.236 247.035,181.903 247,186.5C 248.066,184.901 249.566,183.901 251.5,183.5C 252.524,184.853 253.857,185.52 255.5,185.5C 255.281,184.325 255.614,183.325 256.5,182.5C 258.191,184.256 260.191,184.756 262.5,184C 262.982,182.992 263.148,181.825 263,180.5C 264.183,181.731 265.349,181.731 266.5,180.5C 265.41,179.391 265.41,178.391 266.5,177.5C 268.195,178.292 269.862,177.958 271.5,176.5C 275.426,171.86 279.426,167.194 283.5,162.5C 284.417,161.873 285.417,161.539 286.5,161.5C 276.24,175.761 263.24,186.761 247.5,194.5C 244.833,194.833 242.167,195.167 239.5,195.5C 237.167,195.5 234.833,195.5 232.5,195.5C 235.235,191.419 237.569,187.085 239.5,182.5C 251.08,161.006 260.746,138.673 268.5,115.5 Z"/></g>
<g><path style="opacity:1" fill="#81223c" d="M 239.5,182.5 C 237.569,187.085 235.235,191.419 232.5,195.5C 234.833,195.5 237.167,195.5 239.5,195.5C 235.208,197.9 230.542,198.734 225.5,198C 227.618,196.951 229.284,195.451 230.5,193.5C 233.739,190.017 236.739,186.35 239.5,182.5 Z"/></g>
<g><path style="opacity:1" fill="#f8e2ec" d="M 230.5,193.5 C 229.284,195.451 227.618,196.951 225.5,198C 230.542,198.734 235.208,197.9 239.5,195.5C 242.167,195.167 244.833,194.833 247.5,194.5C 246.359,196.229 244.693,197.229 242.5,197.5C 236.58,199.126 230.58,199.626 224.5,199C 223.978,198.439 223.645,197.772 223.5,197C 225.094,194.619 227.427,193.453 230.5,193.5 Z"/></g>
<g><path style="opacity:1" fill="#711d36" d="M 15.5,194.5 C 15.5858,195.496 15.2524,196.329 14.5,197C 78.8333,197.667 143.167,197.667 207.5,197C 208.563,195.812 209.897,195.312 211.5,195.5C 211.196,196.15 210.863,196.817 210.5,197.5C 140.502,198.667 70.5024,198.833 0.5,198C 5.48427,196.67 10.4843,195.504 15.5,194.5 Z"/></g>
</svg>
