<?xml version="1.0" encoding="UTF-8"?>
<!DOCTYPE svg PUBLIC "-//W3C//DTD SVG 1.1//EN" "http://www.w3.org/Graphics/SVG/1.1/DTD/svg11.dtd">
<svg xmlns="http://www.w3.org/2000/svg" version="1.1" width="225px" height="224px" style="shape-rendering:geometricPrecision; text-rendering:geometricPrecision; image-rendering:optimizeQuality; fill-rule:evenodd; clip-rule:evenodd" xmlns:xlink="http://www.w3.org/1999/xlink">
<g><path style="opacity:1" fill="#fbfbfa" d="M -0.5,-0.5 C 35.8333,-0.5 72.1667,-0.5 108.5,-0.5C 104.125,0.677374 99.7919,2.01071 95.5,3.5C 84.7386,5.8443 74.0719,8.17763 63.5,10.5C 55.6106,11.643 47.9439,13.3096 40.5,15.5C 26.8347,18.1664 13.168,20.8331 -0.5,23.5C -0.5,15.5 -0.5,7.5 -0.5,-0.5 Z"/></g>
<g><path style="opacity:1" fill="#fbfbfa" d="M 114.5,-0.5 C 151.167,-0.5 187.833,-0.5 224.5,-0.5C 224.5,7.5 224.5,15.5 224.5,23.5C 209.179,20.5057 193.845,17.5057 178.5,14.5C 161.749,10.2639 144.749,6.59725 127.5,3.5C 123.208,2.01071 118.875,0.677374 114.5,-0.5 Z"/></g>
<g><path style="opacity:1" fill="#fd6666" d="M 108.5,-0.5 C 110.5,-0.5 112.5,-0.5 114.5,-0.5C 118.875,0.677374 123.208,2.01071 127.5,3.5C 130.026,5.55947 133.026,7.05947 136.5,8C 135.062,8.21893 133.729,8.71893 132.5,9.5C 135.107,10.3184 137.774,10.8184 140.5,11C 141.687,12.0195 142.687,13.1861 143.5,14.5C 157.608,16.041 170.942,19.8743 183.5,26C 188.978,26.357 194.312,27.357 199.5,29C 197.038,30.2156 194.371,30.8823 191.5,31C 193.473,31.4955 195.473,31.6621 197.5,31.5C 193.784,33.4053 189.784,34.7387 185.5,35.5C 183.143,35.6633 180.81,35.4966 178.5,35C 179.167,34.6667 179.833,34.3333 180.5,34C 178.048,33.7105 175.715,33.0438 173.5,32C 174.308,31.6924 174.975,31.1924 175.5,30.5C 172.273,28.1031 168.606,26.9365 164.5,27C 156.052,23.4061 147.386,20.4061 138.5,18C 137.003,16.1294 135.003,15.1294 132.5,15C 133.938,14.7811 135.271,14.2811 136.5,13.5C 130.47,12.8081 124.47,11.9747 118.5,11C 118.167,10 117.833,9 117.5,8C 114.798,7.3934 112.132,7.56007 109.5,8.5C 104.671,7.25283 100.004,5.58616 95.5,3.5C 99.7919,2.01071 104.125,0.677374 108.5,-0.5 Z"/></g>
<g><path style="opacity:1" fill="#fb7677" d="M 127.5,3.5 C 144.749,6.59725 161.749,10.2639 178.5,14.5C 177.791,15.404 176.791,15.7373 175.5,15.5C 175.5,16.5 175.5,17.5 175.5,18.5C 180.049,18.4608 184.049,19.7941 187.5,22.5C 196.723,24.4361 206.056,25.7695 215.5,26.5C 209.703,28.5382 203.703,30.2049 197.5,31.5C 195.473,31.6621 193.473,31.4955 191.5,31C 194.371,30.8823 197.038,30.2156 199.5,29C 194.312,27.357 188.978,26.357 183.5,26C 170.942,19.8743 157.608,16.041 143.5,14.5C 142.687,13.1861 141.687,12.0195 140.5,11C 137.774,10.8184 135.107,10.3184 132.5,9.5C 133.729,8.71893 135.062,8.21893 136.5,8C 133.026,7.05947 130.026,5.55947 127.5,3.5 Z"/></g>
<g><path style="opacity:1" fill="#fd5455" d="M 95.5,3.5 C 100.004,5.58616 104.671,7.25283 109.5,8.5C 112.132,7.56007 114.798,7.3934 117.5,8C 117.833,9 118.167,10 118.5,11C 124.47,11.9747 130.47,12.8081 136.5,13.5C 135.271,14.2811 133.938,14.7811 132.5,15C 135.003,15.1294 137.003,16.1294 138.5,18C 147.386,20.4061 156.052,23.4061 164.5,27C 168.606,26.9365 172.273,28.1031 175.5,30.5C 174.975,31.1924 174.308,31.6924 173.5,32C 175.715,33.0438 178.048,33.7105 180.5,34C 179.833,34.3333 179.167,34.6667 178.5,35C 180.81,35.4966 183.143,35.6633 185.5,35.5C 179.099,38.0136 172.432,40.0136 165.5,41.5C 166.635,40.5255 167.635,39.3588 168.5,38C 165.852,35.9504 162.852,34.7837 159.5,34.5C 159.649,33.448 159.483,32.448 159,31.5C 153.985,31.6515 148.818,31.6515 143.5,31.5C 143.5,29.5 143.5,27.5 143.5,25.5C 132.69,23.4641 122.023,20.7974 111.5,17.5C 111.5,16.5 111.5,15.5 111.5,14.5C 108.941,14.1984 106.607,14.5318 104.5,15.5C 100.094,13.7402 95.427,12.5735 90.5,12C 87.2742,8.80007 83.6075,7.96674 79.5,9.5C 74.1383,9.47245 68.8049,9.80578 63.5,10.5C 74.0719,8.17763 84.7386,5.8443 95.5,3.5 Z"/></g>
<g><path style="opacity:1" fill="#fd4241" d="M 165.5,41.5 C 159.127,44.0985 152.461,46.0985 145.5,47.5C 147.12,45.0158 149.453,43.5158 152.5,43C 150.122,42.0255 150.456,41.3589 153.5,41C 150.321,39.5387 146.988,38.7054 143.5,38.5C 143.5,36.8333 143.5,35.1667 143.5,33.5C 138.858,32.542 134.525,30.7087 130.5,28C 124.943,26.2879 119.276,24.9545 113.5,24C 112.141,22.7955 111.141,21.2955 110.5,19.5C 108.833,18.8333 107.167,18.1667 105.5,17.5C 104.702,17.0431 104.369,16.3764 104.5,15.5C 106.607,14.5318 108.941,14.1984 111.5,14.5C 111.5,15.5 111.5,16.5 111.5,17.5C 122.023,20.7974 132.69,23.4641 143.5,25.5C 143.5,27.5 143.5,29.5 143.5,31.5C 148.818,31.6515 153.985,31.6515 159,31.5C 159.483,32.448 159.649,33.448 159.5,34.5C 162.852,34.7837 165.852,35.9504 168.5,38C 167.635,39.3588 166.635,40.5255 165.5,41.5 Z"/></g>
<g><path style="opacity:1" fill="#fa8485" d="M 178.5,14.5 C 193.845,17.5057 209.179,20.5057 224.5,23.5C 224.5,23.8333 224.5,24.1667 224.5,24.5C 221.402,24.7556 218.402,25.4222 215.5,26.5C 206.056,25.7695 196.723,24.4361 187.5,22.5C 184.049,19.7941 180.049,18.4608 175.5,18.5C 175.5,17.5 175.5,16.5 175.5,15.5C 176.791,15.7373 177.791,15.404 178.5,14.5 Z"/></g>
<g><path style="opacity:1" fill="#fd3939" d="M 79.5,9.5 C 83.6075,7.96674 87.2742,8.80007 90.5,12C 95.427,12.5735 100.094,13.7402 104.5,15.5C 104.369,16.3764 104.702,17.0431 105.5,17.5C 107.167,18.1667 108.833,18.8333 110.5,19.5C 111.141,21.2955 112.141,22.7955 113.5,24C 119.276,24.9545 124.943,26.2879 130.5,28C 134.525,30.7087 138.858,32.542 143.5,33.5C 143.5,35.1667 143.5,36.8333 143.5,38.5C 143.565,38.9382 143.399,39.2716 143,39.5C 138.15,36.9391 132.983,35.2724 127.5,34.5C 127.5,33.5 127.5,32.5 127.5,31.5C 124.428,31.8174 121.428,31.4841 118.5,30.5C 115.995,28.7467 113.329,27.2467 110.5,26C 105.335,24.7228 100.335,23.0562 95.5,21C 90.2573,19.5217 84.924,18.6884 79.5,18.5C 79.5,16.8333 79.5,15.1667 79.5,13.5C 81.8273,13.7529 83.8273,13.0863 85.5,11.5C 83.9775,9.71745 81.9775,9.05078 79.5,9.5 Z"/></g>
<g><path style="opacity:1" fill="#9a0303" d="M 224.5,24.5 C 224.5,25.5 224.5,26.5 224.5,27.5C 222.574,48.3101 221.241,69.3101 220.5,90.5C 219.635,96.0044 218.968,101.671 218.5,107.5C 216.837,116.612 215.671,125.945 215,135.5C 212.797,137.669 211.964,140.335 212.5,143.5C 211.172,138.544 210.505,133.211 210.5,127.5C 211.76,114.162 211.76,100.828 210.5,87.5C 211.506,77.4538 212.839,67.4538 214.5,57.5C 208.039,59.098 201.706,61.098 195.5,63.5C 194.35,76.7021 192.683,89.7021 190.5,102.5C 189.504,102.586 188.671,102.252 188,101.5C 187.998,98.9488 187.164,96.9488 185.5,95.5C 183.45,87.2509 181.784,78.9176 180.5,70.5C 173.736,71.8636 167.402,74.1969 161.5,77.5C 159.692,78.9179 159.025,80.9179 159.5,83.5C 159.47,87.6179 158.803,91.6179 157.5,95.5C 155.768,103.778 153.434,111.778 150.5,119.5C 148.719,107.478 146.719,95.4783 144.5,83.5C 138.61,85.74 132.777,88.0733 127,90.5C 126.938,94.1483 127.105,97.815 127.5,101.5C 127.743,107.184 128.243,112.851 129,118.5C 129.383,119.056 129.883,119.389 130.5,119.5C 130.31,127.618 129.644,135.618 128.5,143.5C 124.167,143.5 119.833,143.5 115.5,143.5C 115.5,140.833 115.5,138.167 115.5,135.5C 114.167,135.5 112.833,135.5 111.5,135.5C 111.5,132.833 111.5,130.167 111.5,127.5C 111.5,104.167 111.5,80.8333 111.5,57.5C 117.049,56.7067 122.382,55.3734 127.5,53.5C 130.684,52.2013 134.017,51.2013 137.5,50.5C 140.411,50.0399 143.078,49.0399 145.5,47.5C 152.461,46.0985 159.127,44.0985 165.5,41.5C 172.432,40.0136 179.099,38.0136 185.5,35.5C 189.784,34.7387 193.784,33.4053 197.5,31.5C 203.703,30.2049 209.703,28.5382 215.5,26.5C 218.402,25.4222 221.402,24.7556 224.5,24.5 Z"/></g>
<g><path style="opacity:1" fill="#fd2a2a" d="M 79.5,9.5 C 81.9775,9.05078 83.9775,9.71745 85.5,11.5C 83.8273,13.0863 81.8273,13.7529 79.5,13.5C 79.5,15.1667 79.5,16.8333 79.5,18.5C 84.924,18.6884 90.2573,19.5217 95.5,21C 100.335,23.0562 105.335,24.7228 110.5,26C 113.329,27.2467 115.995,28.7467 118.5,30.5C 121.428,31.4841 124.428,31.8174 127.5,31.5C 127.5,32.5 127.5,33.5 127.5,34.5C 132.983,35.2724 138.15,36.9391 143,39.5C 143.399,39.2716 143.565,38.9382 143.5,38.5C 146.988,38.7054 150.321,39.5387 153.5,41C 150.456,41.3589 150.122,42.0255 152.5,43C 149.453,43.5158 147.12,45.0158 145.5,47.5C 143.078,49.0399 140.411,50.0399 137.5,50.5C 137.611,49.8826 137.944,49.3826 138.5,49C 136.5,48.6667 134.5,48.3333 132.5,48C 135.167,47.6667 137.833,47.3333 140.5,47C 139.833,46.3333 139.167,45.6667 138.5,45C 122.11,37.5564 105.776,30.5564 89.5,24C 79.3517,20.5987 69.0184,17.7653 58.5,15.5C 52.5056,14.387 46.5056,14.387 40.5,15.5C 47.9439,13.3096 55.6106,11.643 63.5,10.5C 68.8049,9.80578 74.1383,9.47245 79.5,9.5 Z"/></g>
<g><path style="opacity:1" fill="#fa0607" d="M 127.5,53.5 C 122.382,55.3734 117.049,56.7067 111.5,57.5C 82.0069,49.4228 52.6735,40.7561 23.5,31.5C 23.4226,30.2502 22.756,29.4169 21.5,29C 24.4371,28.6386 27.2704,29.1386 30,30.5C 30.5,30.1667 31,29.8333 31.5,29.5C 29.402,28.3679 27.2353,27.3679 25,26.5C 23.4223,27.5472 21.9223,27.5472 20.5,26.5C 21.376,25.7492 22.376,25.2492 23.5,25C 22.8333,24.6667 22.1667,24.3333 21.5,24C 22.8333,23.6667 24.1667,23.3333 25.5,23C 23.913,22.1376 22.2464,21.4709 20.5,21C 22.764,20.7638 24.9307,20.2638 27,19.5C 27.6838,20.7839 27.5171,21.9505 26.5,23C 30.9557,23.5778 35.289,23.0778 39.5,21.5C 39.281,20.325 39.6143,19.325 40.5,18.5C 42.5225,20.1733 44.8559,20.8399 47.5,20.5C 47.5,21.5 47.5,22.5 47.5,23.5C 51.5138,23.3345 55.5138,23.5012 59.5,24C 62.038,25.6305 64.7046,26.9639 67.5,28C 73.5333,29.4028 79.5333,30.7362 85.5,32C 97.2534,36.941 109.253,41.2744 121.5,45C 122.167,45.6667 122.833,46.3333 123.5,47C 114.167,47.6667 114.167,48.3333 123.5,49C 126.106,49.4505 127.439,50.9505 127.5,53.5 Z"/></g>
<g><path style="opacity:1" fill="#fb1716" d="M 137.5,50.5 C 134.017,51.2013 130.684,52.2013 127.5,53.5C 127.439,50.9505 126.106,49.4505 123.5,49C 114.167,48.3333 114.167,47.6667 123.5,47C 122.833,46.3333 122.167,45.6667 121.5,45C 109.253,41.2744 97.2534,36.941 85.5,32C 79.5333,30.7362 73.5333,29.4028 67.5,28C 64.7046,26.9639 62.038,25.6305 59.5,24C 55.5138,23.5012 51.5138,23.3345 47.5,23.5C 47.5,22.5 47.5,21.5 47.5,20.5C 44.8559,20.8399 42.5225,20.1733 40.5,18.5C 39.6143,19.325 39.281,20.325 39.5,21.5C 35.289,23.0778 30.9557,23.5778 26.5,23C 27.5171,21.9505 27.6838,20.7839 27,19.5C 24.9307,20.2638 22.764,20.7638 20.5,21C 22.2464,21.4709 23.913,22.1376 25.5,23C 24.1667,23.3333 22.8333,23.6667 21.5,24C 22.1667,24.3333 22.8333,24.6667 23.5,25C 22.376,25.2492 21.376,25.7492 20.5,26.5C 21.9223,27.5472 23.4223,27.5472 25,26.5C 27.2353,27.3679 29.402,28.3679 31.5,29.5C 31,29.8333 30.5,30.1667 30,30.5C 27.2704,29.1386 24.4371,28.6386 21.5,29C 22.756,29.4169 23.4226,30.2502 23.5,31.5C 17.8965,29.6817 12.2299,28.015 6.5,26.5C 4.56475,25.8505 2.56475,25.5172 0.5,25.5C 0.166667,25.5 -0.166667,25.5 -0.5,25.5C -0.5,24.8333 -0.5,24.1667 -0.5,23.5C 13.168,20.8331 26.8347,18.1664 40.5,15.5C 46.5056,14.387 52.5056,14.387 58.5,15.5C 69.0184,17.7653 79.3517,20.5987 89.5,24C 105.776,30.5564 122.11,37.5564 138.5,45C 139.167,45.6667 139.833,46.3333 140.5,47C 137.833,47.3333 135.167,47.6667 132.5,48C 134.5,48.3333 136.5,48.6667 138.5,49C 137.944,49.3826 137.611,49.8826 137.5,50.5 Z"/></g>
<g><path style="opacity:1" fill="#fcfcfb" d="M 224.5,27.5 C 224.5,92.8333 224.5,158.167 224.5,223.5C 187.167,223.5 149.833,223.5 112.5,223.5C 113.167,222.833 113.833,222.167 114.5,221.5C 132.822,212.673 150.822,203.34 168.5,193.5C 183.788,186.523 198.788,179.023 213.5,171C 214.337,169.989 214.67,168.822 214.5,167.5C 216.157,149.001 217.491,130.335 218.5,111.5C 220.461,104.913 221.128,97.9131 220.5,90.5C 221.241,69.3101 222.574,48.3101 224.5,27.5 Z"/></g>
<g><path style="opacity:1" fill="#710302" d="M 6.5,26.5 C 12.2299,28.015 17.8965,29.6817 23.5,31.5C 52.6735,40.7561 82.0069,49.4228 111.5,57.5C 111.5,80.8333 111.5,104.167 111.5,127.5C 106.167,127.5 100.833,127.5 95.5,127.5C 95.762,126.022 95.4287,124.689 94.5,123.5C 94.1879,127.496 92.6879,130.829 90,133.5C 89.5831,132.244 88.7498,131.577 87.5,131.5C 87.5,131.167 87.5,130.833 87.5,130.5C 87.1307,128.559 86.464,126.725 85.5,125C 85.8333,124.667 86.1667,124.333 86.5,124C 85.0646,121.059 82.7313,119.559 79.5,119.5C 79.281,118.325 79.6143,117.325 80.5,116.5C 82.7723,114.889 84.939,113.889 87,113.5C 86.8835,121.119 89.3835,122.286 94.5,117C 91.9485,115.484 92.2819,114.651 95.5,114.5C 95.6633,112.143 95.4966,109.81 95,107.5C 94.2597,109.319 93.0931,110.652 91.5,111.5C 88.8589,91.7161 78.5255,77.5494 60.5,69C 51.4232,64.0514 41.7565,62.0514 31.5,63C 29.9221,64.0945 28.2554,64.9278 26.5,65.5C 25.1667,65.5 23.8333,65.5 22.5,65.5C 21.9306,72.1379 19.9306,72.8045 16.5,67.5C 16.1667,68.3333 15.8333,69.1667 15.5,70C 16.4844,71.1235 17.151,72.6235 17.5,74.5C 17.5629,76.4809 16.8962,78.1476 15.5,79.5C 14.0199,63.507 12.3533,47.507 10.5,31.5C 10.1667,34.1667 9.83333,36.8333 9.5,39.5C 12.0035,68.9628 13.0035,98.2961 12.5,127.5C 10.9942,130.356 10.3275,133.523 10.5,137C 10.9004,147.259 11.9004,157.426 13.5,167.5C 12.5,167.5 11.5,167.5 10.5,167.5C 9.50032,151.505 8.50032,135.505 7.5,119.5C 7.47832,116.41 6.81166,113.743 5.5,111.5C 5.06454,103.505 4.73121,95.5052 4.5,87.5C 4.49841,71.474 3.83175,55.474 2.5,39.5C 2.56228,36.3872 3.22895,33.5539 4.5,31C 4.04265,30.586 3.70931,30.086 3.5,29.5C 4.77013,28.7124 5.77013,27.7124 6.5,26.5 Z"/></g>
<g><path style="opacity:1" fill="#650c10" d="M 0.5,25.5 C 2.56475,25.5172 4.56475,25.8505 6.5,26.5C 5.77013,27.7124 4.77013,28.7124 3.5,29.5C 3.70931,30.086 4.04265,30.586 4.5,31C 3.22895,33.5539 2.56228,36.3872 2.5,39.5C 3.83175,55.474 4.49841,71.474 4.5,87.5C 2.59479,67.0216 1.26146,46.355 0.5,25.5 Z"/></g>
<g><path style="opacity:1" fill="#e6e2e2" d="M 91.5,111.5 C 91.2648,112.097 90.7648,112.43 90,112.5C 82.3863,110.129 74.8863,107.462 67.5,104.5C 65.9199,94.5999 60.5865,87.9332 51.5,84.5C 54.1667,84.8333 56.8333,85.1667 59.5,85.5C 59.5,84.5 59.5,83.5 59.5,82.5C 57.5714,82.7692 55.9047,82.2692 54.5,81C 55.1667,80.3333 55.8333,79.6667 56.5,79C 51.8159,78.5386 47.1493,78.7053 42.5,79.5C 42.3398,81.1992 42.5065,82.8659 43,84.5C 43.6543,83.3044 44.1543,83.3044 44.5,84.5C 44.0234,85.931 43.3567,87.2643 42.5,88.5C 41.8076,87.9747 41.3076,87.3081 41,86.5C 40.502,89.4816 40.3354,92.4816 40.5,95.5C 38.8333,95.5 37.1667,95.5 35.5,95.5C 37.0813,90.3774 37.748,85.0441 37.5,79.5C 36.1667,79.5 34.8333,79.5 33.5,79.5C 33.6657,83.8461 33.499,88.1794 33,92.5C 32.6667,92.8333 32.3333,93.1667 32,93.5C 31.8283,88.7982 31.3283,84.1315 30.5,79.5C 27.6824,84.4698 26.0158,89.8031 25.5,95.5C 25.1667,94.3333 24.8333,93.1667 24.5,92C 24.6331,87.3357 25.6331,83.0024 27.5,79C 26.8921,78.1301 26.0588,77.6301 25,77.5C 23.6998,78.7073 22.1998,79.3739 20.5,79.5C 20.87,74.0975 22.87,69.4308 26.5,65.5C 28.2554,64.9278 29.9221,64.0945 31.5,63C 41.7565,62.0514 51.4232,64.0514 60.5,69C 78.5255,77.5494 88.8589,91.7161 91.5,111.5 Z"/></g>
<g><path style="opacity:1" fill="#f9f9f8" d="M 210.5,87.5 C 206.439,107.885 203.439,128.551 201.5,149.5C 200.209,149.263 199.209,149.596 198.5,150.5C 192.833,153.167 187.167,155.833 181.5,158.5C 178.447,142.678 174.781,127.012 170.5,111.5C 167.973,120.663 166.306,129.996 165.5,139.5C 163.754,145.926 162.754,152.593 162.5,159.5C 161.271,163.144 159.938,166.811 158.5,170.5C 152.959,173.685 147.292,176.685 141.5,179.5C 138.888,167.442 136.555,155.442 134.5,143.5C 133.803,135.265 132.469,127.265 130.5,119.5C 130.561,113.196 129.561,107.196 127.5,101.5C 127.105,97.815 126.938,94.1483 127,90.5C 132.777,88.0733 138.61,85.74 144.5,83.5C 146.719,95.4783 148.719,107.478 150.5,119.5C 150.187,122.247 150.52,124.914 151.5,127.5C 154.519,117.039 156.519,106.372 157.5,95.5C 158.803,91.6179 159.47,87.6179 159.5,83.5C 160.285,81.6264 160.952,79.6264 161.5,77.5C 167.402,74.1969 173.736,71.8636 180.5,70.5C 181.784,78.9176 183.45,87.2509 185.5,95.5C 186.452,100.927 187.785,106.26 189.5,111.5C 190.484,108.572 190.817,105.572 190.5,102.5C 192.683,89.7021 194.35,76.7021 195.5,63.5C 201.706,61.098 208.039,59.098 214.5,57.5C 212.839,67.4538 211.506,77.4538 210.5,87.5 Z"/></g>
<g><path style="opacity:1" fill="#6c0605" d="M 26.5,65.5 C 22.87,69.4308 20.87,74.0975 20.5,79.5C 20.466,91.5651 24.2993,102.232 32,111.5C 41.7992,120.808 52.2992,129.142 63.5,136.5C 63.5,137.167 63.5,137.833 63.5,138.5C 66.2009,142.409 67.0342,146.742 66,151.5C 64.6713,152.494 63.338,153.494 62,154.5C 60.1208,152.987 57.9541,152.321 55.5,152.5C 49.4435,150.269 45.6101,145.936 44,139.5C 43.2057,136.529 42.539,133.529 42,130.5C 38.3715,129.259 34.8715,127.926 31.5,126.5C 31.6309,125.624 31.2975,124.957 30.5,124.5C 28.4648,123.959 26.4648,123.292 24.5,122.5C 23.3595,121.575 23.3595,120.741 24.5,120C 21.4929,119.699 18.4929,119.865 15.5,120.5C 15.5614,118.408 16.5614,116.908 18.5,116C 17.552,115.517 16.552,115.351 15.5,115.5C 14.318,114.677 13.9847,117.343 14.5,123.5C 14.9035,131.061 15.5702,138.061 16.5,144.5C 17.5836,143.335 18.4169,142.002 19,140.5C 20.9985,145.15 22.9985,149.817 25,154.5C 25.9803,155.981 27.147,157.315 28.5,158.5C 26.8647,159.681 25.198,159.681 23.5,158.5C 20.8349,153.883 18.3349,149.883 16,146.5C 15.6596,151.004 15.4929,155.337 15.5,159.5C 13.8394,148.885 12.8394,138.218 12.5,127.5C 13.0035,98.2961 12.0035,68.9628 9.5,39.5C 9.83333,36.8333 10.1667,34.1667 10.5,31.5C 12.3533,47.507 14.0199,63.507 15.5,79.5C 16.8962,78.1476 17.5629,76.4809 17.5,74.5C 17.151,72.6235 16.4844,71.1235 15.5,70C 15.8333,69.1667 16.1667,68.3333 16.5,67.5C 19.9306,72.8045 21.9306,72.1379 22.5,65.5C 23.8333,65.5 25.1667,65.5 26.5,65.5 Z"/></g>
<g><path style="opacity:1" fill="#5f443e" d="M 161.5,77.5 C 160.952,79.6264 160.285,81.6264 159.5,83.5C 159.025,80.9179 159.692,78.9179 161.5,77.5 Z"/></g>
<g><path style="opacity:1" fill="#931923" d="M 185.5,95.5 C 187.164,96.9488 187.998,98.9488 188,101.5C 188.671,102.252 189.504,102.586 190.5,102.5C 190.817,105.572 190.484,108.572 189.5,111.5C 187.785,106.26 186.452,100.927 185.5,95.5 Z"/></g>
<g><path style="opacity:1" fill="#6f0b0b" d="M 51.5,84.5 C 60.5865,87.9332 65.9199,94.5999 67.5,104.5C 74.8863,107.462 82.3863,110.129 90,112.5C 90.7648,112.43 91.2648,112.097 91.5,111.5C 93.0931,110.652 94.2597,109.319 95,107.5C 95.4966,109.81 95.6633,112.143 95.5,114.5C 92.2819,114.651 91.9485,115.484 94.5,117C 89.3835,122.286 86.8835,121.119 87,113.5C 84.939,113.889 82.7723,114.889 80.5,116.5C 79.6143,117.325 79.281,118.325 79.5,119.5C 82.7313,119.559 85.0646,121.059 86.5,124C 86.1667,124.333 85.8333,124.667 85.5,125C 86.464,126.725 87.1307,128.559 87.5,130.5C 82.4056,124.176 76.739,118.343 70.5,113C 62.1022,107.937 54.2689,102.104 47,95.5C 42.4412,88.9768 43.9412,85.3101 51.5,84.5 Z"/></g>
<g><path style="opacity:1" fill="#edd2c3" d="M 220.5,90.5 C 221.128,97.9131 220.461,104.913 218.5,111.5C 218.5,110.167 218.5,108.833 218.5,107.5C 218.968,101.671 219.635,96.0044 220.5,90.5 Z"/></g>
<g><path style="opacity:1" fill="#8f1a1b" d="M 157.5,95.5 C 156.519,106.372 154.519,117.039 151.5,127.5C 150.52,124.914 150.187,122.247 150.5,119.5C 153.434,111.778 155.768,103.778 157.5,95.5 Z"/></g>
<g><path style="opacity:1" fill="#982523" d="M 127.5,101.5 C 129.561,107.196 130.561,113.196 130.5,119.5C 129.883,119.389 129.383,119.056 129,118.5C 128.243,112.851 127.743,107.184 127.5,101.5 Z"/></g>
<g><path style="opacity:1" fill="#910c0a" d="M 181.5,158.5 C 180.048,159.713 178.714,159.38 177.5,157.5C 176.5,158.167 175.5,158.833 174.5,159.5C 173.645,154.136 172.645,148.803 171.5,143.5C 171.046,154.294 169.712,164.961 167.5,175.5C 167.998,163.47 167.332,151.47 165.5,139.5C 166.306,129.996 167.973,120.663 170.5,111.5C 174.781,127.012 178.447,142.678 181.5,158.5 Z"/></g>
<g><path style="opacity:1" fill="#e4e5e2" d="M 51.5,84.5 C 43.9412,85.3101 42.4412,88.9768 47,95.5C 54.2689,102.104 62.1022,107.937 70.5,113C 76.739,118.343 82.4056,124.176 87.5,130.5C 87.5,130.833 87.5,131.167 87.5,131.5C 90.8979,137.027 92.8979,143.027 93.5,149.5C 94.0718,156.77 93.0718,163.77 90.5,170.5C 89.5,171.167 88.5,171.833 87.5,172.5C 86.5,172.5 85.5,172.5 84.5,172.5C 84.3379,170.473 84.5045,168.473 85,166.5C 88.2226,165.277 89.8893,162.944 90,159.5C 90.6667,154.167 90.6667,148.833 90,143.5C 89.3308,140.733 88.1641,140.233 86.5,142C 87.4556,143.365 88.1223,144.865 88.5,146.5C 87.7035,150.798 87.3701,155.132 87.5,159.5C 85.8333,159.5 84.1667,159.5 82.5,159.5C 82.9856,154.301 82.3189,149.301 80.5,144.5C 79.675,143.614 78.675,143.281 77.5,143.5C 77.4533,140.432 76.9533,137.432 76,134.5C 74.1164,133.023 72.1164,131.69 70,130.5C 69.5172,129.552 69.3505,128.552 69.5,127.5C 67.5082,127.672 65.8415,127.005 64.5,125.5C 63.2813,126.646 61.9479,127.646 60.5,128.5C 63.9555,129.157 67.1222,130.49 70,132.5C 70.4144,136.351 71.2477,140.017 72.5,143.5C 71.1667,143.5 69.8333,143.5 68.5,143.5C 68.5014,139.794 66.8347,137.461 63.5,136.5C 52.2992,129.142 41.7992,120.808 32,111.5C 24.2993,102.232 20.466,91.5651 20.5,79.5C 22.1998,79.3739 23.6998,78.7073 25,77.5C 26.0588,77.6301 26.8921,78.1301 27.5,79C 25.6331,83.0024 24.6331,87.3357 24.5,92C 24.8333,93.1667 25.1667,94.3333 25.5,95.5C 26.0158,89.8031 27.6824,84.4698 30.5,79.5C 31.3283,84.1315 31.8283,88.7982 32,93.5C 32.3333,93.1667 32.6667,92.8333 33,92.5C 33.499,88.1794 33.6657,83.8461 33.5,79.5C 34.8333,79.5 36.1667,79.5 37.5,79.5C 37.748,85.0441 37.0813,90.3774 35.5,95.5C 37.1667,95.5 38.8333,95.5 40.5,95.5C 40.3354,92.4816 40.502,89.4816 41,86.5C 41.3076,87.3081 41.8076,87.9747 42.5,88.5C 43.3567,87.2643 44.0234,85.931 44.5,84.5C 44.1543,83.3044 43.6543,83.3044 43,84.5C 42.5065,82.8659 42.3398,81.1992 42.5,79.5C 47.1493,78.7053 51.8159,78.5386 56.5,79C 55.8333,79.6667 55.1667,80.3333 54.5,81C 55.9047,82.2692 57.5714,82.7692 59.5,82.5C 59.5,83.5 59.5,84.5 59.5,85.5C 56.8333,85.1667 54.1667,84.8333 51.5,84.5 Z"/></g>
<g><path style="opacity:1" fill="#fcfbfb" d="M -0.5,25.5 C -0.166667,25.5 0.166667,25.5 0.5,25.5C 1.26146,46.355 2.59479,67.0216 4.5,87.5C 4.73121,95.5052 5.06454,103.505 5.5,111.5C 6.80996,131.172 8.30996,150.839 10,170.5C 43.7531,188.293 77.5865,205.96 111.5,223.5C 74.1667,223.5 36.8333,223.5 -0.5,223.5C -0.5,157.5 -0.5,91.5 -0.5,25.5 Z"/></g>
<g><path style="opacity:1" fill="#e5e3e4" d="M 31.5,126.5 C 34.8715,127.926 38.3715,129.259 42,130.5C 42.539,133.529 43.2057,136.529 44,139.5C 45.6101,145.936 49.4435,150.269 55.5,152.5C 60.0102,156.83 64.1769,156.497 68,151.5C 68.9656,146.227 67.4656,141.894 63.5,138.5C 63.5,137.833 63.5,137.167 63.5,136.5C 66.8347,137.461 68.5014,139.794 68.5,143.5C 69.8333,143.5 71.1667,143.5 72.5,143.5C 71.2477,140.017 70.4144,136.351 70,132.5C 67.1222,130.49 63.9555,129.157 60.5,128.5C 61.9479,127.646 63.2813,126.646 64.5,125.5C 65.8415,127.005 67.5082,127.672 69.5,127.5C 69.3505,128.552 69.5172,129.552 70,130.5C 72.1164,131.69 74.1164,133.023 76,134.5C 76.9533,137.432 77.4533,140.432 77.5,143.5C 78.675,143.281 79.675,143.614 80.5,144.5C 82.3189,149.301 82.9856,154.301 82.5,159.5C 84.1667,159.5 85.8333,159.5 87.5,159.5C 87.3701,155.132 87.7035,150.798 88.5,146.5C 88.1223,144.865 87.4556,143.365 86.5,142C 88.1641,140.233 89.3308,140.733 90,143.5C 90.6667,148.833 90.6667,154.167 90,159.5C 89.8893,162.944 88.2226,165.277 85,166.5C 84.5045,168.473 84.3379,170.473 84.5,172.5C 85.5,172.5 86.5,172.5 87.5,172.5C 87.5858,173.496 87.2524,174.329 86.5,175C 76.0786,179.718 65.7453,179.385 55.5,174C 48.9801,171.245 42.9801,167.745 37.5,163.5C 25.2622,152.689 18.5956,139.022 17.5,122.5C 22.2244,123.63 26.8911,124.964 31.5,126.5 Z"/></g>
<g><path style="opacity:1" fill="#680101" d="M 111.5,127.5 C 111.5,130.167 111.5,132.833 111.5,135.5C 111.5,143.5 111.5,151.5 111.5,159.5C 106.167,159.5 100.833,159.5 95.5,159.5C 95.8412,155.84 95.1745,152.507 93.5,149.5C 92.8979,143.027 90.8979,137.027 87.5,131.5C 88.7498,131.577 89.5831,132.244 90,133.5C 92.6879,130.829 94.1879,127.496 94.5,123.5C 95.4287,124.689 95.762,126.022 95.5,127.5C 100.833,127.5 106.167,127.5 111.5,127.5 Z"/></g>
<g><path style="opacity:1" fill="#8b0505" d="M 210.5,87.5 C 211.76,100.828 211.76,114.162 210.5,127.5C 210.505,133.211 211.172,138.544 212.5,143.5C 214.467,151.097 215.134,159.097 214.5,167.5C 213.113,165.123 212.279,162.457 212,159.5C 210.684,162.688 210.184,166.022 210.5,169.5C 209.325,169.719 208.325,169.386 207.5,168.5C 208.779,157.587 208.779,151.587 207.5,150.5C 204.433,151.195 201.433,152.195 198.5,153.5C 197.438,152.575 197.438,151.575 198.5,150.5C 199.209,149.596 200.209,149.263 201.5,149.5C 203.439,128.551 206.439,107.885 210.5,87.5 Z"/></g>
<g><path style="opacity:1" fill="#861b19" d="M 218.5,107.5 C 218.5,108.833 218.5,110.167 218.5,111.5C 217.491,130.335 216.157,149.001 214.5,167.5C 215.134,159.097 214.467,151.097 212.5,143.5C 211.964,140.335 212.797,137.669 215,135.5C 215.671,125.945 216.837,116.612 218.5,107.5 Z"/></g>
<g><path style="opacity:1" fill="#5a1e1e" d="M 63.5,138.5 C 67.4656,141.894 68.9656,146.227 68,151.5C 64.1769,156.497 60.0102,156.83 55.5,152.5C 57.9541,152.321 60.1208,152.987 62,154.5C 63.338,153.494 64.6713,152.494 66,151.5C 67.0342,146.742 66.2009,142.409 63.5,138.5 Z"/></g>
<g><path style="opacity:1" fill="#5b0505" d="M 31.5,126.5 C 26.8911,124.964 22.2244,123.63 17.5,122.5C 18.5956,139.022 25.2622,152.689 37.5,163.5C 37.5106,165.017 38.1772,166.184 39.5,167C 43.2603,170.278 47.5936,172.612 52.5,174C 52.1667,174.333 51.8333,174.667 51.5,175C 52.448,175.483 53.448,175.649 54.5,175.5C 54.225,179.109 52.225,181.109 48.5,181.5C 46.336,181.002 44.6694,179.836 43.5,178C 42.3333,177.833 41.1667,177.667 40,177.5C 37.494,177.949 35.3274,178.949 33.5,180.5C 29.4502,178.821 25.4502,177.154 21.5,175.5C 21.9662,173.799 21.9662,172.299 21.5,171C 23.9288,170.549 24.0955,169.715 22,168.5C 20.6047,169.43 19.1047,169.43 17.5,168.5C 15.9121,169.01 14.7455,170.01 14,171.5C 11.9286,170.897 10.7619,169.564 10.5,167.5C 11.5,167.5 12.5,167.5 13.5,167.5C 11.9004,157.426 10.9004,147.259 10.5,137C 10.3275,133.523 10.9942,130.356 12.5,127.5C 12.8394,138.218 13.8394,148.885 15.5,159.5C 15.4929,155.337 15.6596,151.004 16,146.5C 18.3349,149.883 20.8349,153.883 23.5,158.5C 25.198,159.681 26.8647,159.681 28.5,158.5C 27.147,157.315 25.9803,155.981 25,154.5C 22.9985,149.817 20.9985,145.15 19,140.5C 18.4169,142.002 17.5836,143.335 16.5,144.5C 15.5702,138.061 14.9035,131.061 14.5,123.5C 13.9847,117.343 14.318,114.677 15.5,115.5C 16.552,115.351 17.552,115.517 18.5,116C 16.5614,116.908 15.5614,118.408 15.5,120.5C 18.4929,119.865 21.4929,119.699 24.5,120C 23.3595,120.741 23.3595,121.575 24.5,122.5C 26.4648,123.292 28.4648,123.959 30.5,124.5C 31.2975,124.957 31.6309,125.624 31.5,126.5 Z"/></g>
<g><path style="opacity:1" fill="#8c0405" d="M 130.5,119.5 C 132.469,127.265 133.803,135.265 134.5,143.5C 134.201,150.279 134.867,156.946 136.5,163.5C 136.333,164.833 136.167,166.167 136,167.5C 134.625,165.063 134.125,162.397 134.5,159.5C 133.5,159.5 132.5,159.5 131.5,159.5C 131.586,165.429 130.586,171.096 128.5,176.5C 129.321,178.783 129.988,181.116 130.5,183.5C 130.547,185 129.881,186 128.5,186.5C 127.511,182.893 127.177,179.226 127.5,175.5C 124.833,175.5 122.167,175.5 119.5,175.5C 119.5,178.167 119.5,180.833 119.5,183.5C 118.5,183.5 117.5,183.5 116.5,183.5C 116.5,180.833 116.5,178.167 116.5,175.5C 114.833,175.5 113.167,175.5 111.5,175.5C 111.5,170.167 111.5,164.833 111.5,159.5C 111.5,151.5 111.5,143.5 111.5,135.5C 112.833,135.5 114.167,135.5 115.5,135.5C 115.5,138.167 115.5,140.833 115.5,143.5C 119.833,143.5 124.167,143.5 128.5,143.5C 129.644,135.618 130.31,127.618 130.5,119.5 Z"/></g>
<g><path style="opacity:1" fill="#810304" d="M 165.5,139.5 C 167.332,151.47 167.998,163.47 167.5,175.5C 169.712,164.961 171.046,154.294 171.5,143.5C 172.645,148.803 173.645,154.136 174.5,159.5C 175.5,158.833 176.5,158.167 177.5,157.5C 178.714,159.38 180.048,159.713 181.5,158.5C 187.167,155.833 192.833,153.167 198.5,150.5C 197.438,151.575 197.438,152.575 198.5,153.5C 201.433,152.195 204.433,151.195 207.5,150.5C 208.779,151.587 208.779,157.587 207.5,168.5C 208.325,169.386 209.325,169.719 210.5,169.5C 210.184,166.022 210.684,162.688 212,159.5C 212.279,162.457 213.113,165.123 214.5,167.5C 214.67,168.822 214.337,169.989 213.5,171C 198.788,179.023 183.788,186.523 168.5,193.5C 165.71,193.778 163.21,193.111 161,191.5C 160,192.167 159,192.833 158,193.5C 153.594,191.469 149.094,191.135 144.5,192.5C 143.614,191.675 143.281,190.675 143.5,189.5C 146.843,188.776 150.176,187.943 153.5,187C 155.037,185.89 155.703,184.39 155.5,182.5C 156.833,182.5 158.167,182.5 159.5,182.5C 159.762,181.022 159.429,179.689 158.5,178.5C 154.132,182.067 149.132,184.067 143.5,184.5C 143.781,189 142.114,189.833 138.5,187C 136.191,184.285 134.857,181.118 134.5,177.5C 134.733,176.068 135.4,175.568 136.5,176C 137.103,177.825 137.77,179.659 138.5,181.5C 139.842,183.005 141.508,183.672 143.5,183.5C 143.5,182.5 143.5,181.5 143.5,180.5C 145.467,180.739 147.301,180.406 149,179.5C 149.333,180.167 149.667,180.833 150,181.5C 151.128,179.655 151.628,177.655 151.5,175.5C 154.507,175.635 157.007,174.635 159,172.5C 160.89,172.785 162.223,173.785 163,175.5C 162.808,170.201 162.641,164.867 162.5,159.5C 162.754,152.593 163.754,145.926 165.5,139.5 Z"/></g>
<g><path style="opacity:1" fill="#5c0202" d="M 93.5,149.5 C 95.1745,152.507 95.8412,155.84 95.5,159.5C 100.833,159.5 106.167,159.5 111.5,159.5C 111.5,164.833 111.5,170.167 111.5,175.5C 111.5,180.833 111.5,186.167 111.5,191.5C 103.493,191.666 95.4931,191.5 87.5,191C 89.7693,188.977 92.4359,188.144 95.5,188.5C 95.7989,186.396 95.4656,184.396 94.5,182.5C 90.7895,183.637 87.4562,183.637 84.5,182.5C 85.2355,179.68 86.9022,177.68 89.5,176.5C 91.323,177.747 93.323,178.414 95.5,178.5C 95.6621,176.473 95.4955,174.473 95,172.5C 94.4115,174.863 92.9115,175.863 90.5,175.5C 90.5,173.833 90.5,172.167 90.5,170.5C 93.0718,163.77 94.0718,156.77 93.5,149.5 Z"/></g>
<g><path style="opacity:1" fill="#520505" d="M 5.5,111.5 C 6.81166,113.743 7.47832,116.41 7.5,119.5C 8.50032,135.505 9.50032,151.505 10.5,167.5C 10.7619,169.564 11.9286,170.897 14,171.5C 14.7455,170.01 15.9121,169.01 17.5,168.5C 19.1047,169.43 20.6047,169.43 22,168.5C 24.0955,169.715 23.9288,170.549 21.5,171C 21.9662,172.299 21.9662,173.799 21.5,175.5C 25.4502,177.154 29.4502,178.821 33.5,180.5C 35.3274,178.949 37.494,177.949 40,177.5C 41.1667,177.667 42.3333,177.833 43.5,178C 44.6694,179.836 46.336,181.002 48.5,181.5C 52.225,181.109 54.225,179.109 54.5,175.5C 53.448,175.649 52.448,175.483 51.5,175C 51.8333,174.667 52.1667,174.333 52.5,174C 47.5936,172.612 43.2603,170.278 39.5,167C 38.1772,166.184 37.5106,165.017 37.5,163.5C 42.9801,167.745 48.9801,171.245 55.5,174C 65.7453,179.385 76.0786,179.718 86.5,175C 87.2524,174.329 87.5858,173.496 87.5,172.5C 88.5,171.833 89.5,171.167 90.5,170.5C 90.5,172.167 90.5,173.833 90.5,175.5C 92.9115,175.863 94.4115,174.863 95,172.5C 95.4955,174.473 95.6621,176.473 95.5,178.5C 93.323,178.414 91.323,177.747 89.5,176.5C 86.9022,177.68 85.2355,179.68 84.5,182.5C 87.4562,183.637 90.7895,183.637 94.5,182.5C 95.4656,184.396 95.7989,186.396 95.5,188.5C 92.4359,188.144 89.7693,188.977 87.5,191C 95.4931,191.5 103.493,191.666 111.5,191.5C 111.606,200.775 111.606,209.941 111.5,219C 112.13,220.31 113.13,221.144 114.5,221.5C 113.833,222.167 113.167,222.833 112.5,223.5C 112.167,223.5 111.833,223.5 111.5,223.5C 77.5865,205.96 43.7531,188.293 10,170.5C 8.30996,150.839 6.80996,131.172 5.5,111.5 Z"/></g>
<g><path style="opacity:1" fill="#7e0405" d="M 134.5,143.5 C 136.555,155.442 138.888,167.442 141.5,179.5C 147.292,176.685 152.959,173.685 158.5,170.5C 159.938,166.811 161.271,163.144 162.5,159.5C 162.641,164.867 162.808,170.201 163,175.5C 162.223,173.785 160.89,172.785 159,172.5C 157.007,174.635 154.507,175.635 151.5,175.5C 151.628,177.655 151.128,179.655 150,181.5C 149.667,180.833 149.333,180.167 149,179.5C 147.301,180.406 145.467,180.739 143.5,180.5C 143.5,181.5 143.5,182.5 143.5,183.5C 141.508,183.672 139.842,183.005 138.5,181.5C 137.77,179.659 137.103,177.825 136.5,176C 135.4,175.568 134.733,176.068 134.5,177.5C 134.857,181.118 136.191,184.285 138.5,187C 142.114,189.833 143.781,189 143.5,184.5C 149.132,184.067 154.132,182.067 158.5,178.5C 159.429,179.689 159.762,181.022 159.5,182.5C 158.167,182.5 156.833,182.5 155.5,182.5C 155.703,184.39 155.037,185.89 153.5,187C 150.176,187.943 146.843,188.776 143.5,189.5C 143.281,190.675 143.614,191.675 144.5,192.5C 149.094,191.135 153.594,191.469 158,193.5C 159,192.833 160,192.167 161,191.5C 163.21,193.111 165.71,193.778 168.5,193.5C 150.822,203.34 132.822,212.673 114.5,221.5C 113.13,221.144 112.13,220.31 111.5,219C 111.606,209.941 111.606,200.775 111.5,191.5C 111.5,186.167 111.5,180.833 111.5,175.5C 113.167,175.5 114.833,175.5 116.5,175.5C 116.5,178.167 116.5,180.833 116.5,183.5C 117.5,183.5 118.5,183.5 119.5,183.5C 119.5,180.833 119.5,178.167 119.5,175.5C 122.167,175.5 124.833,175.5 127.5,175.5C 127.177,179.226 127.511,182.893 128.5,186.5C 129.881,186 130.547,185 130.5,183.5C 129.988,181.116 129.321,178.783 128.5,176.5C 130.586,171.096 131.586,165.429 131.5,159.5C 132.5,159.5 133.5,159.5 134.5,159.5C 134.125,162.397 134.625,165.063 136,167.5C 136.167,166.167 136.333,164.833 136.5,163.5C 134.867,156.946 134.201,150.279 134.5,143.5 Z"/></g>
</svg>
